<svg xmlns:dc="http://purl.org/dc/elements/1.1/" xmlns:cc="http://creativecommons.org/ns#" xmlns:rdf="http://www.w3.org/1999/02/22-rdf-syntax-ns#" xmlns:svg="http://www.w3.org/2000/svg" xmlns="http://www.w3.org/2000/svg" xmlns:sodipodi="http://sodipodi.sourceforge.net/DTD/sodipodi-0.dtd" xmlns:inkscape="http://www.inkscape.org/namespaces/inkscape" version="1.1" viewBox="0 0 8.4666665 10.583333625" x="0px" y="0px"><g><path style="color:#000000;font-style:normal;font-variant:normal;font-weight:normal;font-stretch:normal;font-size:medium;line-height:normal;font-family:sans-serif;font-variant-ligatures:normal;font-variant-position:normal;font-variant-caps:normal;font-variant-numeric:normal;font-variant-alternates:normal;font-variant-east-asian:normal;font-feature-settings:normal;font-variation-settings:normal;text-indent:0;text-align:start;text-decoration:none;text-decoration-line:none;text-decoration-style:solid;text-decoration-color:#000000;letter-spacing:normal;word-spacing:normal;text-transform:none;writing-mode:lr-tb;direction:ltr;text-orientation:mixed;dominant-baseline:auto;baseline-shift:baseline;text-anchor:start;white-space:normal;shape-padding:0;shape-margin:0;inline-size:0;clip-rule:nonzero;display:inline;overflow:visible;visibility:visible;opacity:1;isolation:auto;mix-blend-mode:normal;color-interpolation:sRGB;color-interpolation-filters:linearRGB;solid-color:#000000;solid-opacity:1;vector-effect:none;fill:#000000;fill-opacity:1;fill-rule:nonzero;stroke:none;stroke-width:0.529167;stroke-linecap:round;stroke-linejoin:round;stroke-miterlimit:4;stroke-dasharray:none;stroke-dashoffset:0;stroke-opacity:1;paint-order:stroke fill markers;color-rendering:auto;image-rendering:auto;shape-rendering:auto;text-rendering:auto;enable-background:accumulate;stop-color:#000000;stop-opacity:1" d="m 4.2343663,0.52916665 c -2.0426219,-4e-7 -3.70519905,1.66051185 -3.70520005,3.70313315 0,2.0426212 1.66257815,3.7052007 3.70520005,3.7052002 2.0426196,-3e-7 3.7031341,-1.6625795 3.7031341,-3.7052002 0,-2.042621 -1.6605145,-3.70313295 -3.7031341,-3.70313315 z m 0,1.85156655 A 0.26458349,0.26458349 0 0 1 4.4979162,2.64635 V 3.9687499 H 5.8223841 A 0.26458349,0.26458349 0 0 1 6.085933,4.2322998 0.26458349,0.26458349 0 0 1 5.8223841,4.4979166 H 4.4979162 v 1.3224 A 0.26458349,0.26458349 0 0 1 4.2343663,6.0859334 0.26458349,0.26458349 0 0 1 3.9687495,5.8203166 v -1.3224 H 2.6463496 A 0.26458349,0.26458349 0 0 1 2.3827997,4.2322998 0.26458349,0.26458349 0 0 1 2.6463496,3.9687499 H 3.9687495 V 2.64635 A 0.26458349,0.26458349 0 0 1 4.2343663,2.3807332 Z"/></g></svg>